<svg xmlns="http://www.w3.org/2000/svg" viewBox="0 0 200 200" role="img" aria-label="明治政府 五七桐">
  <g fill="#fff">
    <path d="M100 174C87 146 86 111 96 77c10 34 9 69 4 97Z"/>
    <path d="M94 165C67 148 50 119 49 87c29 13 45 39 45 78Z"/>
    <path d="M106 165c27-17 44-46 45-78-29 13-45 39-45 78Z"/>
    <path d="M91 166C68 165 44 150 31 126c29-3 51 10 60 40Z"/>
    <path d="M109 166c23-1 47-16 60-40-29-3-51 10-60 40Z"/>
    <rect x="96" y="42" width="8" height="88" rx="4"/>
    <rect x="58" y="62" width="7" height="64" rx="4" transform="rotate(-12 62 94)"/>
    <rect x="135" y="62" width="7" height="64" rx="4" transform="rotate(12 138 94)"/>
    <circle cx="100" cy="22" r="7"/><circle cx="88" cy="33" r="7"/><circle cx="112" cy="33" r="7"/>
    <circle cx="82" cy="48" r="7"/><circle cx="118" cy="48" r="7"/><circle cx="91" cy="62" r="7"/><circle cx="109" cy="62" r="7"/>
    <circle cx="58" cy="42" r="7"/><circle cx="47" cy="54" r="7"/><circle cx="69" cy="54" r="7"/><circle cx="51" cy="69" r="7"/><circle cx="65" cy="69" r="7"/>
    <circle cx="142" cy="42" r="7"/><circle cx="131" cy="54" r="7"/><circle cx="153" cy="54" r="7"/><circle cx="135" cy="69" r="7"/><circle cx="149" cy="69" r="7"/>
  </g>
</svg>
