<svg xmlns="http://www.w3.org/2000/svg" viewBox="0 0 200 200" role="img" aria-label="徳川家 三つ葉葵">
  <circle cx="100" cy="100" r="82" fill="none" stroke="#fff" stroke-width="10"/>
  <g fill="#fff">
    <path d="M100 103C73 91 68 62 83 37c7 10 27 10 34 0 15 25 10 54-17 66Z"/>
    <path d="M100 103C73 91 68 62 83 37c7 10 27 10 34 0 15 25 10 54-17 66Z" transform="rotate(120 100 103)"/>
    <path d="M100 103C73 91 68 62 83 37c7 10 27 10 34 0 15 25 10 54-17 66Z" transform="rotate(240 100 103)"/>
    <circle cx="100" cy="103" r="12"/>
  </g>
  <g fill="none" stroke="#111" stroke-width="3" opacity=".62">
    <path d="M100 96V48M100 96l-42 25M100 96l42 25"/>
  </g>
</svg>
