<svg xmlns="http://www.w3.org/2000/svg" viewBox="0 0 200 200" role="img" aria-label="山内家 丸に三つ柏">
  <circle cx="100" cy="100" r="82" fill="none" stroke="#fff" stroke-width="10"/>
  <g fill="#fff">
    <path d="M100 101C82 91 71 72 77 48c10 4 17 1 23-10 6 11 13 14 23 10 6 24-5 43-23 53Z"/>
    <path d="M100 101C82 91 71 72 77 48c10 4 17 1 23-10 6 11 13 14 23 10 6 24-5 43-23 53Z" transform="rotate(120 100 101)"/>
    <path d="M100 101C82 91 71 72 77 48c10 4 17 1 23-10 6 11 13 14 23 10 6 24-5 43-23 53Z" transform="rotate(240 100 101)"/>
    <circle cx="100" cy="101" r="13"/>
  </g>
  <g fill="none" stroke="#fff" stroke-width="4">
    <path d="M100 100V55M100 100l-39 23M100 100l39 23"/>
  </g>
</svg>
